<svg width="40" height="40" viewBox="0 0 40 40" fill="none" xmlns="http://www.w3.org/2000/svg">
<path d="M30 0H10C4.47715 0 0 4.47715 0 10V30C0 35.5228 4.47715 40 10 40H30C35.5228 40 40 35.5228 40 30V10C40 4.47715 35.5228 0 30 0Z" fill="#FF6719"/>
<path d="M9.38623 8.15845V10.9703H30.3367V8.15845H9.38623ZM9.38623 13.505V16.3564H30.3367V13.505H9.38623ZM9.38623 18.8515V31.9604C10.2425 31.7133 11.1028 31.0427 11.8813 30.6083L17.109 27.6887C17.7563 27.3276 18.4053 26.969 19.0496 26.6027C19.2602 26.483 19.6164 26.185 19.8645 26.1895C20.1089 26.194 20.4639 26.4941 20.6734 26.6138C21.2768 26.9587 21.8858 27.2968 22.4951 27.6314C24.3372 28.6431 26.158 29.6935 28.0001 30.7052C28.7124 31.0964 29.5445 31.7791 30.3367 31.9604V18.8515H9.38623Z" fill="white"/>
</svg>
