<svg width="40" height="40" viewBox="0 0 40 40" fill="none" xmlns="http://www.w3.org/2000/svg">
<path d="M30 0H10C4.47715 0 0 4.47715 0 10V30C0 35.5228 4.47715 40 10 40H30C35.5228 40 40 35.5228 40 30V10C40 4.47715 35.5228 0 30 0Z" fill="#FFABE7"/>
<path fill-rule="evenodd" clip-rule="evenodd" d="M8 19.9978C8 13.3749 13.371 8 20 8C26.6295 8 32 13.3797 32 20.0022C32 26.6251 26.629 32 20 32H19.0266V31.9567C12.857 31.4609 8 26.2934 8 19.9978ZM20.2985 30.0493C25.7136 29.8914 30.0533 25.4509 30.0533 20.0022C30.0533 14.4532 25.5528 9.9464 20 9.9464C14.4467 9.9464 9.94675 14.4494 9.94675 19.9978C9.94675 25.5461 14.4508 30.0493 20 30.0493H20.2985Z" fill="#B8509A"/>
<path fill-rule="evenodd" clip-rule="evenodd" d="M15.1415 11.2064C15.0081 11.1644 14.8697 11.1208 14.7256 11.072L15.3511 9.22876C15.4085 9.24826 15.512 9.28124 15.6328 9.31976C15.8498 9.38896 16.1227 9.47599 16.2853 9.53461L16.294 9.53775L16.3027 9.54106C16.3472 9.55807 16.3948 9.5761 16.4448 9.595C16.6966 9.69024 17.0073 9.80774 17.2668 9.92909L17.2783 9.93448L17.3297 9.96018C17.4518 10.0171 17.6352 10.1045 17.7879 10.1773C17.8737 10.2182 17.9498 10.2544 17.9999 10.2781L18.0231 10.2891L18.0458 10.3013C18.051 10.3041 18.0572 10.3074 18.0642 10.3111C18.1168 10.3393 18.2149 10.3918 18.3091 10.4493L18.3349 10.4651L18.3422 10.4702C18.3528 10.4764 18.3674 10.4847 18.3854 10.4947C18.4011 10.5034 18.4162 10.5118 18.4313 10.5201C18.4343 10.5217 18.4373 10.5233 18.4402 10.525C18.4485 10.5296 18.458 10.5348 18.4665 10.5395C18.4708 10.542 18.4824 10.5484 18.4952 10.5558C18.5066 10.5624 18.5243 10.5725 18.5465 10.5851C18.6141 10.6238 18.7235 10.6862 18.8251 10.7457C18.9297 10.8069 19.0894 10.9013 19.2075 10.9841C19.3341 11.0619 19.4733 11.1583 19.566 11.2225C19.5827 11.234 19.5978 11.2445 19.6112 11.2537C19.6824 11.2971 19.7522 11.3463 19.8007 11.3811C19.8701 11.4308 19.9457 11.4872 20.0147 11.539C20.0465 11.563 20.0756 11.5849 20.1031 11.6057C20.1397 11.6333 20.1735 11.6588 20.2071 11.684C20.2349 11.7047 20.258 11.7219 20.2767 11.7354C20.2859 11.7421 20.2931 11.7473 20.2985 11.7511C20.3031 11.7544 20.3053 11.7558 20.3054 11.7559L20.3307 11.7728L20.3552 11.7914C21.4295 12.6098 22.3862 13.5712 23.2028 14.6428L23.2035 14.6438L23.2043 14.6448C24.107 15.8358 24.8197 17.1579 25.314 18.5648C26.7867 22.6782 26.3536 27.4303 24.039 31.1815L22.3821 30.1596C24.3768 26.9268 24.7609 22.7929 23.4803 19.2183L23.4792 19.2154L23.4782 19.2124C23.0516 17.9972 22.4355 16.8533 21.6534 15.8213C20.9459 14.8931 20.1196 14.0618 19.195 13.3546C19.1438 13.3192 19.0871 13.2771 19.0408 13.2424C19.0057 13.2161 18.9644 13.185 18.9237 13.1543C18.8964 13.1337 18.8694 13.1133 18.8446 13.0947C18.7778 13.0444 18.7171 12.9992 18.6668 12.9632C18.622 12.9311 18.6033 12.9193 18.6035 12.9191L18.5747 12.9029L18.5409 12.88C18.4912 12.8462 18.4469 12.8156 18.4064 12.7875C18.3173 12.7258 18.2459 12.6765 18.1735 12.6335L18.1261 12.6053L18.0821 12.572C18.0849 12.5741 18.0847 12.574 18.0808 12.5714C18.0736 12.5666 18.0536 12.5533 18.0161 12.53C17.9666 12.4993 17.906 12.4632 17.8413 12.4252C17.7494 12.3714 17.6657 12.3237 17.5995 12.2859C17.5687 12.2683 17.5416 12.2529 17.5193 12.24L17.5173 12.2388C17.5139 12.237 17.5088 12.2341 17.5013 12.23C17.4989 12.2287 17.4964 12.2273 17.4937 12.2258C17.4786 12.2176 17.4586 12.2065 17.4381 12.1951C17.4142 12.1818 17.3852 12.1655 17.357 12.1489C17.3415 12.1399 17.3127 12.123 17.2805 12.102C17.2408 12.0784 17.1983 12.0556 17.1477 12.0284C17.1469 12.028 17.1462 12.0276 17.1454 12.0271C17.0849 11.9985 17.0095 11.9626 16.9295 11.9244C16.779 11.8526 16.6119 11.773 16.496 11.7191L16.4835 11.7133L16.4312 11.6871C16.2474 11.6019 16.0273 11.5185 15.7809 11.425C15.7273 11.4047 15.6725 11.3839 15.6165 11.3626C15.4646 11.308 15.3068 11.2584 15.1415 11.2064ZM17.5193 12.24C17.5203 12.2406 17.521 12.2409 17.521 12.2409L17.5193 12.24ZM17.5193 12.24C17.5203 12.2406 17.521 12.2409 17.521 12.2409L17.5193 12.24Z" fill="#B8509A"/>
<path fill-rule="evenodd" clip-rule="evenodd" d="M19.2406 15.8388C22.1784 15.3083 24.8895 13.6605 26.7437 11.3149L28.271 12.5219C26.1282 15.2325 23.0002 17.1379 19.5863 17.7542C17.8864 18.0607 16.1397 18.0711 14.4349 17.7585C12.7347 17.4555 11.0942 16.8451 9.61035 15.9541L10.6127 14.2855C11.8913 15.0534 13.3084 15.5809 14.7789 15.8427L14.7814 15.8432L14.784 15.8437C16.2499 16.1127 17.7611 16.1055 19.2406 15.8388Z" fill="#B8509A"/>
<path fill-rule="evenodd" clip-rule="evenodd" d="M14.0396 29.8665C15.7016 21.3858 24.3443 16.7022 31.4127 18.6287L30.9007 20.5066C24.9005 18.8712 17.39 22.8926 15.95 30.2408L14.0396 29.8665Z" fill="#B8509A"/>
</svg>
