<svg width="40" height="40" viewBox="0 0 40 40" fill="none" xmlns="http://www.w3.org/2000/svg">
<path d="M30 0H10C4.47715 0 0 4.47715 0 10V30C0 35.5228 4.47715 40 10 40H30C35.5228 40 40 35.5228 40 30V10C40 4.47715 35.5228 0 30 0Z" fill="#FF90E8"/>
<mask id="mask0_25_1093" style="mask-type:luminance" maskUnits="userSpaceOnUse" x="8" y="8" width="24" height="24">
<path d="M32 8H8V32H32V8Z" fill="white"/>
</mask>
<g mask="url(#mask0_25_1093)">
<path d="M22.0126 31.9993C27.5281 31.9993 31.9992 27.5537 31.9992 22.0696C31.9992 16.5854 27.5281 12.1398 22.0126 12.1398C16.4971 12.1398 12.0259 16.5854 12.0259 22.0696C12.0259 27.5537 16.4971 31.9993 22.0126 31.9993Z" fill="black"/>
<path d="M19.4352 29.919C25.2362 29.919 29.9724 25.2382 29.9724 19.422C29.9724 13.6059 25.2362 8.92505 19.4352 8.92505C13.6343 8.92505 8.89795 13.6059 8.89795 19.422C8.89795 25.2382 13.6343 29.919 19.4352 29.919Z" fill="#FF90E8"/>
<path fill-rule="evenodd" clip-rule="evenodd" d="M8 19.4221C8 13.0641 13.1691 8 19.4354 8C25.7018 8 30.8709 13.0641 30.8709 19.4221C30.8709 25.7802 25.7018 30.8442 19.4354 30.8442C13.1691 30.8442 8 25.7802 8 19.4221ZM19.4354 9.85028C14.0999 9.85028 9.79637 14.1479 9.79637 19.4221C9.79637 24.6963 14.0999 28.9939 19.4354 28.9939C24.7709 28.9939 29.0745 24.6963 29.0745 19.4221C29.0745 14.1479 24.7709 9.85028 19.4354 9.85028Z" fill="black"/>
<path d="M18.6436 24.718C15.6946 24.718 13.96 22.2638 13.96 19.2109C13.96 16.0383 15.8681 13.4642 19.5109 13.4642C23.2695 13.4642 24.5415 16.0982 24.5994 17.5946H21.8816C21.824 16.7565 21.13 15.4996 19.4531 15.4996C17.6607 15.4996 16.5042 17.1157 16.5042 19.0912C16.5042 21.0665 17.6607 22.6827 19.4531 22.6827C21.0722 22.6827 21.7661 21.3658 22.0552 20.049H19.4531V18.9715H24.9131V24.4785H22.5177V21.0066C22.3442 22.2638 21.5926 24.718 18.6436 24.718Z" fill="black"/>
</g>
</svg>
