<svg width="40" height="40" viewBox="0 0 40 40" fill="none" xmlns="http://www.w3.org/2000/svg">
<g clip-path="url(#clip0_25_1198)">
<path d="M30 0H10C4.47715 0 0 4.47715 0 10V30C0 35.5228 4.47715 40 10 40H30C35.5228 40 40 35.5228 40 30V10C40 4.47715 35.5228 0 30 0Z" fill="black"/>
<path d="M30 0.5H10C4.75329 0.5 0.5 4.75329 0.5 10V30C0.5 35.2467 4.75329 39.5 10 39.5H30C35.2467 39.5 39.5 35.2467 39.5 30V10C39.5 4.75329 35.2467 0.5 30 0.5Z" stroke="black" stroke-opacity="0.08"/>
<path fill-rule="evenodd" clip-rule="evenodd" d="M20 20C20 23.3137 17.3137 26 14 26C10.6863 26 8 23.3137 8 20C8 16.6863 10.6863 14 14 14C17.3137 14 20 16.6863 20 20ZM27.5 20C27.5 23.3137 26.1569 26 24.5 26C22.8431 26 21.5 23.3137 21.5 20C21.5 16.6863 22.8431 14 24.5 14C26.1569 14 27.5 16.6863 27.5 20ZM30.375 25.5C31.1344 25.5 31.75 23.0376 31.75 20C31.75 16.9624 31.1344 14.5 30.375 14.5C29.6156 14.5 29 16.9624 29 20C29 23.0376 29.6156 25.5 30.375 25.5Z" fill="white"/>
</g>
<defs>
<clipPath id="clip0_25_1198">
<rect width="40" height="40" fill="white"/>
</clipPath>
</defs>
</svg>
