<svg width="40" height="40" viewBox="0 0 40 40" fill="none" xmlns="http://www.w3.org/2000/svg">
<g clip-path="url(#clip0_25_1163)">
<path d="M30 0H10C4.47715 0 0 4.47715 0 10V30C0 35.5228 4.47715 40 10 40H30C35.5228 40 40 35.5228 40 30V10C40 4.47715 35.5228 0 30 0Z" fill="#BD081C"/>
<path d="M30 0.5H10C4.75329 0.5 0.5 4.75329 0.5 10V30C0.5 35.2467 4.75329 39.5 10 39.5H30C35.2467 39.5 39.5 35.2467 39.5 30V10C39.5 4.75329 35.2467 0.5 30 0.5Z" stroke="black" stroke-opacity="0.08"/>
<mask id="mask0_25_1163" style="mask-type:luminance" maskUnits="userSpaceOnUse" x="8" y="8" width="24" height="24">
<path d="M32 8H8V32H32V8Z" fill="white"/>
</mask>
<g mask="url(#mask0_25_1163)">
<path d="M19.9821 8.07178C13.391 8.07178 8.05371 13.4091 8.05371 20.0001C8.05371 25.0509 11.188 29.3673 15.6298 31.1046C15.5224 30.1554 15.4328 28.7225 15.6657 27.6837C15.8806 26.7524 17.0627 21.7554 17.0627 21.7554C17.0627 21.7554 16.7045 21.0389 16.7045 19.9822C16.7045 18.3166 17.6716 17.0807 18.8537 17.0807C19.8746 17.0807 20.3582 17.8509 20.3582 18.7643C20.3582 19.7852 19.7134 21.3255 19.3731 22.7404C19.0865 23.9225 19.9642 24.8897 21.1462 24.8897C23.2597 24.8897 24.8895 22.6509 24.8895 19.427C24.8895 16.5792 22.8298 14.5733 19.9104 14.5733C16.5254 14.5733 14.5194 17.1166 14.5194 19.7494C14.5194 20.7703 14.9134 21.8807 15.4149 22.4718C15.5045 22.5972 15.5224 22.6867 15.5045 22.8121C15.4149 23.1882 15.2179 23.9942 15.1821 24.1554C15.1283 24.3703 15.003 24.424 14.788 24.3166C13.3015 23.618 12.3701 21.4509 12.3701 19.6957C12.3701 15.9345 15.1104 12.4777 20.2507 12.4777C24.388 12.4777 27.594 15.433 27.594 19.3554C27.594 23.4569 24.997 26.7703 21.4149 26.7703C20.2149 26.7703 19.0686 26.1434 18.6746 25.4091C18.6746 25.4091 18.0836 27.6837 17.9403 28.2389C17.6716 29.2777 16.9373 30.5673 16.4537 31.3733C17.5642 31.7136 18.7462 31.9106 19.9821 31.9106C26.5731 31.9106 31.9104 26.5733 31.9104 19.9822C31.9104 13.4091 26.5731 8.07178 19.9821 8.07178Z" fill="white"/>
</g>
</g>
<defs>
<clipPath id="clip0_25_1163">
<rect width="40" height="40" fill="white"/>
</clipPath>
</defs>
</svg>
