<svg width="40" height="40" viewBox="0 0 40 40" fill="none" xmlns="http://www.w3.org/2000/svg">
<path d="M30 0H10C4.47715 0 0 4.47715 0 10V30C0 35.5228 4.47715 40 10 40H30C35.5228 40 40 35.5228 40 30V10C40 4.47715 35.5228 0 30 0Z" fill="#55ACEE"/>
<mask id="mask0_25_1070" style="mask-type:luminance" maskUnits="userSpaceOnUse" x="8" y="10" width="24" height="20">
<path d="M31.9309 10.2325H8V29.6806H31.9309V10.2325Z" fill="white"/>
</mask>
<g mask="url(#mask0_25_1070)">
<path d="M31.9309 12.5346C31.0506 12.9252 30.1043 13.189 29.1112 13.3077C30.1248 12.7001 30.9034 11.738 31.27 10.5914C30.3211 11.1542 29.2704 11.5627 28.152 11.7828C27.2565 10.8286 25.9806 10.2325 24.5684 10.2325C21.857 10.2325 19.6586 12.4306 19.6586 15.142C19.6586 15.5268 19.702 15.9016 19.7858 16.2609C15.7053 16.0562 12.0876 14.1015 9.66603 11.1311C9.24342 11.8562 9.00123 12.6995 9.00123 13.5993C9.00123 15.3027 9.86801 16.8055 11.1854 17.6859C10.3806 17.6604 9.62356 17.4395 8.96163 17.0718C8.96107 17.0923 8.96107 17.1129 8.96107 17.1336C8.96107 19.5123 10.6535 21.4966 12.8995 21.9479C12.4876 22.0601 12.0538 22.1201 11.606 22.1201C11.2897 22.1201 10.9822 22.0892 10.6823 22.0319C11.3071 23.9825 13.1203 25.402 15.2688 25.4415C13.5885 26.7584 11.4716 27.5433 9.17118 27.5433C8.77489 27.5433 8.38409 27.52 8 27.4746C10.1728 28.8678 12.7535 29.6806 15.5262 29.6806C24.5569 29.6806 29.4955 22.1994 29.4955 15.7112C29.4955 15.4984 29.4906 15.2867 29.4813 15.076C30.4404 14.3839 31.2727 13.5193 31.9309 12.5346Z" fill="white"/>
</g>
</svg>
