<svg width="40" height="40" viewBox="0 0 40 40" fill="none" xmlns="http://www.w3.org/2000/svg">
<g clip-path="url(#clip0_25_1202)">
<path d="M30 0H10C4.47715 0 0 4.47715 0 10V30C0 35.5228 4.47715 40 10 40H30C35.5228 40 40 35.5228 40 30V10C40 4.47715 35.5228 0 30 0Z" fill="#424FED"/>
<path d="M30 0.5H10C4.75329 0.5 0.5 4.75329 0.5 10V30C0.5 35.2467 4.75329 39.5 10 39.5H30C35.2467 39.5 39.5 35.2467 39.5 30V10C39.5 4.75329 35.2467 0.5 30 0.5Z" stroke="black" stroke-opacity="0.08"/>
<path d="M26.8018 16.6863C26.8018 16.6863 24.8559 22.565 24.6973 23.0503C24.6396 22.5511 23.2126 12 23.2126 12C19.8973 12 18.1243 14.2738 17.1874 16.6724C17.1874 16.6724 14.8234 22.565 14.6216 23.0641C14.6072 22.6066 14.2613 16.7418 14.2613 16.7418C14.0595 13.8024 11.2631 12.0139 9 12.0139L11.7387 28C15.2126 27.9861 17.0865 25.7262 18.0667 23.3276C18.0667 23.3276 20.1568 18.1282 20.2432 17.8925C20.2577 18.1144 21.7423 28 21.7423 28C25.2306 28 27.1045 25.8787 28.1135 23.5633L33 12.0139C29.555 12.0139 27.7387 14.2738 26.8018 16.6863Z" fill="white"/>
</g>
<defs>
<clipPath id="clip0_25_1202">
<rect width="40" height="40" fill="white"/>
</clipPath>
</defs>
</svg>
