<svg width="40" height="40" viewBox="0 0 40 40" fill="none" xmlns="http://www.w3.org/2000/svg">
<path d="M30 0H10C4.47715 0 0 4.47715 0 10V30C0 35.5228 4.47715 40 10 40H30C35.5228 40 40 35.5228 40 30V10C40 4.47715 35.5228 0 30 0Z" fill="#FF0000"/>
<path fill-rule="evenodd" clip-rule="evenodd" d="M29.3766 12.5016C30.4093 12.7775 31.2225 13.5907 31.4986 14.6233C32.0001 16.4949 32 20.4001 32 20.4001C32 20.4001 32 24.305 31.4985 26.1768C31.2224 27.2094 30.4092 28.0225 29.3765 28.2986C27.505 28.8 19.9999 28.8 19.9999 28.8C19.9999 28.8 12.4949 28.8 10.6233 28.2986C9.59065 28.0224 8.77727 27.2094 8.50144 26.1767C8 24.3049 8 20.4 8 20.4C8 20.4 8 16.4949 8.50144 14.6233C8.77727 13.5907 9.59065 12.7775 10.6234 12.5016C12.495 12 20 12 20 12C20 12 27.5051 12 29.3766 12.5016ZM24.4429 20.6931L17.6001 24.5857V16.8L24.4429 20.6931Z" fill="white"/>
</svg>
